<svg width="108" height="48" viewBox="0 0 108 48" fill="none" xmlns="http://www.w3.org/2000/svg">
<path d="M35.1414 47.2488H41.6162L23.7039 0H18.236L0 47.2488H6.51031L10.9697 35.0576H10.9901L11.9698 32.3892H29.7786L35.1414 47.2488ZM13.9291 27.0508L20.8615 8.18526H21.0428L27.8515 27.0508H13.9291Z" fill="black"/>
<path d="M103.71 16.4116C101.125 13.3812 97.5739 11.7853 93.0789 11.583C88.333 11.6799 84.6041 13.2656 81.9278 16.4116C79.1582 19.6567 77.7734 23.8739 77.7734 29.0634V30.4349C77.7734 35.647 79.152 39.8785 81.9091 43.1292C84.6662 46.38 88.5392 48.0037 93.528 48.0003C97.2693 48.0003 100.53 46.8338 103.311 44.5008C105.684 42.5055 106.999 40.2518 107.255 37.7211H101.323C101.003 38.9567 100.281 40.053 99.1434 41.003C97.5569 42.3344 95.6851 43.0001 93.528 43.0001C90.2183 43.0001 87.8081 41.7979 86.2974 39.3935C85.1567 37.5987 84.4922 35.2601 84.2871 32.3963H107.8C107.844 31.7623 107.867 31.1131 107.867 30.4485V29.0634C107.865 23.8739 106.479 19.6567 103.71 16.4116ZM88.116 18.2811C89.4245 17.2444 91.0839 16.6886 93.0805 16.6036C94.8467 16.7583 96.3315 17.3344 97.5247 18.2811C98.9505 19.4097 100.004 20.9432 100.547 22.6814C100.987 24.0988 101.256 25.5642 101.349 27.0459H84.2905C84.3815 25.5661 84.6489 24.1025 85.0872 22.6865C85.6316 20.9477 86.6867 19.4141 88.1143 18.2862L88.116 18.2811Z" fill="black"/>
<path d="M67.0133 37.7001C66.693 38.9357 65.9709 40.032 64.8336 40.982C63.2517 42.3043 61.3816 42.9655 59.2233 42.9655C55.9125 42.9655 53.5023 41.7633 51.9927 39.3589C50.6017 37.1721 49.9062 34.1933 49.9062 30.4224V29.0509C49.9062 26.5978 50.2 24.4699 50.7876 22.6672C51.3307 20.929 52.3839 19.3955 53.8097 18.2669C55.2345 17.1339 57.0685 16.5673 59.3115 16.5673C61.5545 16.5673 63.4313 17.3123 64.9421 18.8023C65.8022 19.6361 66.4477 20.6666 66.8235 21.8055H72.883C72.4914 19.2204 71.2897 16.9956 69.2591 15.1261C66.6444 12.7206 63.2991 11.5184 59.2233 11.5195C54.2594 11.5195 50.3926 13.1426 47.6231 16.3889C44.8535 19.6351 43.4688 23.8546 43.4688 29.0475V30.4224C43.4688 35.6402 44.8473 39.8722 47.6044 43.1184C50.3616 46.3647 54.2345 47.9878 59.2233 47.9878C62.9635 47.9878 66.2246 46.8213 69.0066 44.4883C71.3795 42.493 72.6948 40.2393 72.9508 37.7086L67.0133 37.7001Z" fill="black"/>
</svg>
