<svg width="265" height="118" viewBox="0 0 265 118" fill="none" xmlns="http://www.w3.org/2000/svg">
<path d="M86.3393 116.103H102.245L58.2415 0.0297852H44.8089L0.00976562 116.103H16.0032L26.9583 86.1533H27.0083L29.415 79.5981H73.1648L86.3393 116.103ZM34.2285 66.4836L51.2587 20.1379H51.7042L68.4305 66.4836H34.2285Z" fill="white"/>
<path d="M254.785 40.3462C248.435 32.9017 239.712 28.9811 228.669 28.4843C217.011 28.7222 207.85 32.6178 201.275 40.3462C194.471 48.3182 191.07 58.6785 191.07 71.427V74.7965C191.07 87.6007 194.456 97.9957 201.229 105.982C208.003 113.968 217.517 117.956 229.773 117.948C238.964 117.948 246.975 115.082 253.807 109.351C259.636 104.449 262.867 98.9129 263.496 92.6959H248.922C248.135 95.7313 246.362 98.4244 243.568 100.758C239.67 104.029 235.072 105.664 229.773 105.664C221.642 105.664 215.721 102.711 212.01 96.8044C209.207 92.3953 207.575 86.6501 207.071 79.6147H264.833C264.941 78.0574 264.999 76.4624 264.999 74.8299V71.427C264.994 58.6785 261.589 48.3182 254.785 40.3462ZM216.478 44.939C219.692 42.3921 223.768 41.0268 228.673 40.818C233.012 41.198 236.66 42.6134 239.591 44.939C243.094 47.7116 245.681 51.4789 247.015 55.7488C248.097 59.231 248.758 62.8308 248.985 66.471H207.08C207.303 62.8355 207.96 59.2401 209.037 55.7614C210.374 51.4898 212.966 47.7223 216.473 44.9516L216.478 44.939Z" fill="white"/>
<path d="M164.637 92.6459C163.85 95.6813 162.076 98.3744 159.282 100.708C155.396 103.957 150.802 105.581 145.5 105.581C137.366 105.581 131.445 102.628 127.737 96.7209C124.319 91.3487 122.611 84.0309 122.611 74.7673V71.3979C122.611 65.3715 123.333 60.1441 124.776 55.7155C126.11 51.4455 128.698 47.6783 132.2 44.9057C135.701 42.1222 140.206 40.7304 145.716 40.7304C151.226 40.7304 155.837 42.5606 159.548 46.2209C161.661 48.2693 163.247 50.8009 164.17 53.5986H179.056C178.094 47.248 175.142 41.7826 170.154 37.1898C163.73 31.2804 155.512 28.3271 145.5 28.3298C133.305 28.3298 123.806 32.3172 117.002 40.292C110.198 48.2668 106.796 58.6326 106.796 71.3895V74.7673C106.796 87.5854 110.183 97.9819 116.956 105.957C123.729 113.931 133.244 117.919 145.5 117.919C154.688 117.919 162.699 115.053 169.533 109.322C175.363 104.42 178.594 98.8837 179.223 92.6667L164.637 92.6459Z" fill="white"/>
</svg>
