<svg width="108" height="48" viewBox="0 0 108 48" fill="none" xmlns="http://www.w3.org/2000/svg">
<path d="M35.1414 47.2488H41.6162L23.7039 0H18.236L0 47.2488H6.51031L10.9697 35.0576H10.9901L11.9698 32.3892H29.7786L35.1414 47.2488ZM13.9291 27.0508L20.8615 8.18526H21.0428L27.8515 27.0508H13.9291Z" fill="black"/>
<path d="M103.71 16.4113C101.125 13.3809 97.5739 11.785 93.0789 11.5828C88.333 11.6796 84.6041 13.2654 81.9278 16.4113C79.1582 19.6564 77.7734 23.8737 77.7734 29.0631V30.4347C77.7734 35.6468 79.152 39.8782 81.9091 43.129C84.6662 46.3797 88.5392 48.0034 93.528 48C97.2693 48 100.53 46.8335 103.311 44.5006C105.684 42.5052 106.999 40.2516 107.255 37.7209H101.323C101.003 38.9565 100.281 40.0527 99.1434 41.0028C97.5569 42.3341 95.6851 42.9998 93.528 42.9998C90.2183 42.9998 87.8081 41.7976 86.2974 39.3933C85.1567 37.5985 84.4922 35.2598 84.2871 32.396H107.8C107.844 31.7621 107.867 31.1128 107.867 30.4483V29.0631C107.865 23.8737 106.479 19.6564 103.71 16.4113ZM88.116 18.2809C89.4245 17.2441 91.0839 16.6884 93.0805 16.6034C94.8467 16.758 96.3315 17.3342 97.5247 18.2809C98.9505 19.4095 100.004 20.943 100.547 22.6811C100.987 24.0986 101.256 25.5639 101.349 27.0457H84.2905C84.3815 25.5659 84.6489 24.1023 85.0872 22.6862C85.6316 20.9474 86.6867 19.4138 88.1143 18.286L88.116 18.2809Z" fill="black"/>
<path d="M67.0133 37.7004C66.693 38.936 65.9709 40.0322 64.8336 40.9823C63.2517 42.3046 61.3816 42.9657 59.2233 42.9657C55.9125 42.9657 53.5023 41.7635 51.9927 39.3592C50.6017 37.1724 49.9062 34.1935 49.9062 30.4227V29.0511C49.9062 26.598 50.2 24.4701 50.7876 22.6674C51.3307 20.9293 52.3839 19.3958 53.8097 18.2672C55.2345 17.1341 57.0685 16.5676 59.3115 16.5676C61.5545 16.5676 63.4313 17.3126 64.9421 18.8025C65.8022 19.6364 66.4477 20.6669 66.8235 21.8057H72.883C72.4914 19.2206 71.2897 16.9959 69.2591 15.1263C66.6444 12.7208 63.2991 11.5186 59.2233 11.5198C54.2594 11.5198 50.3926 13.1429 47.6231 16.3891C44.8535 19.6354 43.4688 23.8549 43.4688 29.0477V30.4227C43.4688 35.6405 44.8473 39.8724 47.6044 43.1187C50.3616 46.3649 54.2345 47.988 59.2233 47.988C62.9635 47.988 66.2246 46.8215 69.0066 44.4886C71.3795 42.4932 72.6948 40.2396 72.9508 37.7089L67.0133 37.7004Z" fill="black"/>
</svg>
