<svg width="24" height="24" viewBox="0 0 24 24" fill="none" xmlns="http://www.w3.org/2000/svg">
<mask id="mask0" style="mask-type:alpha" maskUnits="userSpaceOnUse" x="3" y="3" width="18" height="18">
<circle cx="12" cy="12" r="9" fill="#5bc236"/>
</mask>
<g mask="url(#mask0)">
<path fill-rule="evenodd" clip-rule="evenodd" d="M12 21C16.9706 21 21 16.9706 21 12C21 7.02944 16.9706 3 12 3C7.02944 3 3 7.02944 3 12C3 16.9706 7.02944 21 12 21ZM12 20.1C16.4735 20.1 20.1 16.4735 20.1 12C20.1 7.52649 16.4735 3.9 12 3.9C7.52649 3.9 3.9 7.52649 3.9 12C3.9 16.4735 7.52649 20.1 12 20.1Z" fill="#5bc236"/>
<path fill-rule="evenodd" clip-rule="evenodd" d="M11.9998 13.188C13.7892 13.188 15.2398 11.7374 15.2398 9.94801C15.2398 8.15861 13.7892 6.70801 11.9998 6.70801C10.2104 6.70801 8.75977 8.15861 8.75977 9.94801C8.75977 11.7374 10.2104 13.188 11.9998 13.188ZM11.9998 12.288C13.2921 12.288 14.3398 11.2403 14.3398 9.948C14.3398 8.65565 13.2921 7.608 11.9998 7.608C10.7074 7.608 9.65976 8.65565 9.65976 9.948C9.65976 11.2403 10.7074 12.288 11.9998 12.288Z" fill="#5bc236"/>
<path fill-rule="evenodd" clip-rule="evenodd" d="M12.0002 26.22C15.7778 26.22 18.8402 23.1577 18.8402 19.38C18.8402 15.6024 15.7778 12.54 12.0002 12.54C8.22253 12.54 5.16016 15.6024 5.16016 19.38C5.16016 23.1577 8.22253 26.22 12.0002 26.22ZM12.0002 25.32C15.2808 25.32 17.9402 22.6606 17.9402 19.38C17.9402 16.0994 15.2808 13.44 12.0002 13.44C8.71967 13.44 6.06024 16.0994 6.06024 19.38C6.06024 22.6606 8.71967 25.32 12.0002 25.32Z" fill="#5bc236"/>
</g>
</svg>
